# xmcd
#
# Track frame offsets:
#	150
#	21380
#	33492
#	45804
#	57554
#	70447
#	81987
#	93934
#	106307
#	121086
#	134467
#	146139
#	157761
#	178991
#	191303
#	204196
#	215736
#	229117
#
# Disc length: 3207 seconds
#
# Revision: 1
# Processed by: cddbd v1.5.2PL0 Copyright (c) Steve Scherf et al.
# Submitted via: audiograbber 1.83.01
#
DISCID=fd0c8512
DTITLE=MARIACHI - MARIACHI
DYEAR=1900
DGENRE=
TTITLE0=A MI MANERA
TTITLE1=CARTA JUGADA
TTITLE2=CIELITO LINDO
TTITLE3=DESPACITO
TTITLE4=DOLOR DE MI DOLOR
TTITLE5=EXTRAÑAME
TTITLE6=LA BASURITA
TTITLE7=LA PALMA
TTITLE8=LAMPARA SIN LUZ
TTITLE9=LAS CIUDADES
TTITLE10=LIBRO ABIERTO
TTITLE11=RECONCILIACION
TTITLE12=BORRAR
TTITLE13=BORRAR
TTITLE14=BORRAR
TTITLE15=BORRAR
TTITLE16=BORRAR
TTITLE17=BORRAR
EXTD=
EXTT0=
EXTT1=
EXTT2=
EXTT3=
EXTT4=
EXTT5=
EXTT6=
EXTT7=
EXTT8=
EXTT9=
EXTT10=
EXTT11=
EXTT12=
EXTT13=
EXTT14=
EXTT15=
EXTT16=
EXTT17=
PLAYORDER=
